<?xml version="1.0" encoding="iso-8859-1"?>
<!-- Generator: Adobe Illustrator 19.0.0, SVG Export Plug-In . SVG Version: 6.00 Build 0)  -->
<svg version="1.1" id="Capa_1" xmlns="http://www.w3.org/2000/svg" xmlns:xlink="http://www.w3.org/1999/xlink" x="0px" y="0px"
	 viewBox="0 0 511.896 511.896" style="enable-background:new 0 0 511.896 511.896;" xml:space="preserve">
<g>
	<g>
		<path d="M1.228,255.896c6.56,91.392,67.84,172.032,158.72,206.496v33.504c0,8.832,7.168,16,16,16h160c8.832,0,16-7.168,16-16
			v-33.504c90.88-34.464,152.128-115.104,158.72-206.496H1.228z"/>
	</g>
</g>
<g>
	<g>
		<path d="M469.772,11.928c-1.44-5.632-5.888-9.952-11.456-11.424C452.62-0.936,446.7,0.76,442.668,4.92
			c-0.288,0.256-26.464,26.752-113.856,60.256c-30.848,11.808-53.28,34.208-63.2,63.04c-7.104,20.736-10.368,53.312,10.016,95.68
			h10.816c1.024-1.344,2.112-2.656,3.584-3.648c0.416-0.288,41.12-28.256,66.688-83.136c3.744-8,13.248-11.392,21.28-7.744
			c8,3.744,11.456,13.28,7.712,21.28c-15.424,33.088-35.328,57.312-51.232,73.248h91.072c12.544-10.24,24.864-23.232,36.256-40.576
			c0.32-0.448,0.608-0.928,0.832-1.44C496.14,117.112,470.86,16.184,469.772,11.928z"/>
	</g>
</g>
<g>
	<g>
		<path d="M219.916,162.424c-7.232-21.12-23.584-37.472-46.016-46.08c-57.984-22.208-75.584-39.68-75.584-39.68
			c-4-4.32-9.952-6.112-15.68-4.672c-5.696,1.44-10.144,5.856-11.584,11.552C70.284,86.52,52.62,157.112,76.3,202.968
			c0.256,0.48,0.544,0.96,0.832,1.44c4.992,7.584,10.336,13.824,15.808,19.488h63.968c-10.848-11.936-22.272-26.912-27.968-42.496
			c-3.04-8.288,1.184-17.472,9.504-20.512c8.384-3.04,17.472,1.216,20.544,9.504c7.68,21.024,33.92,45.344,43.392,52.928
			c0.192,0.16,0.288,0.416,0.48,0.576h13.216C226.86,197.176,224.652,176.184,219.916,162.424z"/>
	</g>
</g>
<g>
</g>
<g>
</g>
<g>
</g>
<g>
</g>
<g>
</g>
<g>
</g>
<g>
</g>
<g>
</g>
<g>
</g>
<g>
</g>
<g>
</g>
<g>
</g>
<g>
</g>
<g>
</g>
<g>
</g>
</svg>
