<svg height="447.056pt" viewBox="0 0 447.056 447.056" width="447.056pt" xmlns="http://www.w3.org/2000/svg"><path d="m382.113281 359.054688-6.21875-12.421876c-1.125-2.253906-1.125-4.902343 0-7.152343l2.21875-4.425781h-27.058593v112h27.058593l-2.21875-4.421876c-1.125-2.253906-1.125-4.902343 0-7.152343l6.21875-12.425781-6.21875-12.421876c-1.125-2.253906-1.125-4.902343 0-7.152343l6.21875-12.425781-6.21875-12.421876c-1.125-2.253906-1.125-4.902343 0-7.152343zm0 0"/><path d="m351.054688 143.054688h-112c-30.910157.035156-55.964844 25.089843-56 56v83.058593l20.425781-10.257812c1.113281-.539063 2.335937-.8125 3.574219-.800781h112c30.914062-.035157 55.964843-25.085938 56-56v-83.054688l-20.421876 10.257812c-1.113281.539063-2.339843.8125-3.578124.796876zm0 0"/><path d="m311.054688 351.054688h-240c-1.238282.015624-2.460938-.257813-3.574219-.796876l-20.425781-10.257812v102.113281l20.425781-10.21875c1.109375-.550781 2.335937-.839843 3.574219-.839843h240c1.238281-.011719 2.464843.261718 3.578124.800781l20.421876 10.257812v-102.113281l-20.421876 10.257812c-1.113281.539063-2.339843.8125-3.578124.796876zm-16 56c0 4.417968-3.582032 8-8 8h-192c-4.417969 0-8-3.582032-8-8v-32c0-4.417969 3.582031-8 8-8h192c4.417968 0 8 3.582031 8 8zm0 0"/><path d="m6.214844 339.480469c1.125 2.25 1.125 4.898437 0 7.152343l-6.214844 12.421876 6.214844 12.425781c1.125 2.25 1.125 4.898437 0 7.152343l-6.214844 12.421876 6.214844 12.425781c1.125 2.25 1.125 4.898437 0 7.152343l-6.214844 12.421876 6.214844 12.425781c1.125 2.25 1.125 4.898437 0 7.152343l-2.214844 4.421876h27.054688v-112h-27.054688zm0 0"/><path d="m397.863281 322.847656c1.460938 2.359375 1.59375 5.304688.351563 7.785156l-6.214844 12.421876 6.214844 12.425781c1.125 2.25 1.125 4.898437 0 7.152343l-2.214844 4.421876h46.742188l-27-60.75c-.453126-1.023438-.6875-2.128907-.6875-3.25v-208c-.007813-1.402344.359374-2.78125 1.058593-4l25.160157-44h-324.433594l25.160156 44c.699219 1.21875 1.0625 2.597656 1.054688 4v208c0 1.121093-.234376 2.226562-.6875 3.25l-12.757813 28.75h179.558594l30.3125-15.199219c.09375-.046875.199219-.054688.296875-.101563.09375-.050781.351562-.113281.535156-.1875.769531-.285156 1.578125-.449218 2.398438-.488281.121093 0 .21875-.0625.328124-.0625h48c2.789063 0 5.371094 1.453125 6.824219 3.832031zm-6.808593-107.792968c-.046876 39.746093-32.253907 71.953124-72 72h-110.109376l-30.3125 15.203124c-2.488281 1.242188-5.441406 1.101563-7.800781-.363281-2.363281-1.46875-3.792969-4.058593-3.777343-6.839843v-96c.050781-39.742188 32.257812-71.949219 72-72h110.113281l30.3125-15.160157c2.480469-1.238281 5.425781-1.105469 7.785156.355469 2.355469 1.457031 3.792969 4.03125 3.789063 6.804688zm0 0"/><path d="m442.632812 6.214844c-2.253906 1.125-4.902343 1.125-7.152343 0l-12.425781-6.214844-12.421876 6.214844c-2.253906 1.125-4.902343 1.125-7.152343 0l-12.425781-6.214844-12.421876 6.214844c-2.253906 1.125-4.902343 1.125-7.152343 0l-12.425781-6.214844-12.421876 6.214844c-2.253906 1.125-4.902343 1.125-7.152343 0l-12.425781-6.214844-12.421876 6.214844c-2.253906 1.125-4.902343 1.125-7.152343 0l-12.425781-6.214844-12.421876 6.214844c-2.253906 1.125-4.902343 1.125-7.152343 0l-12.425781-6.214844-12.421876 6.214844c-2.253906 1.125-4.902343 1.125-7.152343 0l-12.425781-6.214844-12.421876 6.214844c-2.253906 1.125-4.902343 1.125-7.152343 0l-12.425781-6.214844-12.421876 6.214844c-2.253906 1.125-4.902343 1.125-7.152343 0l-12.425781-6.214844-12.421876 6.214844c-2.253906 1.125-4.902343 1.125-7.152343 0l-12.425781-6.214844-12.421876 6.214844c-2.253906 1.125-4.902343 1.125-7.152343 0l-4.425781-2.214844v27.054688h336v-27.054688zm0 0"/><path d="m103.054688 383.054688h176v16h-176zm0 0"/><path d="m398.257812 387.480469c1.125 2.25 1.125 4.898437 0 7.152343l-6.257812 12.421876 2.632812 5.265624 8.847657-4.425781c2.25-1.125 4.898437-1.125 7.152343 0l8 4 4.421876 2.21875 12.425781-6.21875c2.25-1.125 4.898437-1.125 7.152343 0l4.421876 2.21875v-27.058593h-51.054688zm0 0"/></svg>