<?xml version="1.0" encoding="iso-8859-1"?>
<!-- Generator: Adobe Illustrator 19.0.0, SVG Export Plug-In . SVG Version: 6.00 Build 0)  -->
<svg version="1.1" id="Capa_1" xmlns="http://www.w3.org/2000/svg" xmlns:xlink="http://www.w3.org/1999/xlink" x="0px" y="0px"
	 viewBox="0 0 512 512" style="enable-background:new 0 0 512 512;" xml:space="preserve">
<g>
	<g>
		<path d="M298,0h-84c-11.046,0-20,8.954-20,20v10h124V20C318,8.954,309.046,0,298,0z"/>
	</g>
</g>
<g>
	<g>
		<path d="M361,345.765V319H151v26.765c0,12.937,3.058,25.892,8.844,37.464c6.424,12.847,7.46,27.426,2.917,41.052l-7.462,22.388
			C152.446,455.227,151,464.14,151,473.16c0,21.417,17.423,38.84,38.84,38.84h132.32c21.417,0,38.84-17.423,38.84-38.84
			c0-9.02-1.446-17.933-4.299-26.491l-7.463-22.389c-4.542-13.625-3.506-28.205,2.917-41.051
			C357.941,371.657,361,358.702,361,345.765z"/>
	</g>
</g>
<g>
	<g>
		<rect x="151" y="223" width="210" height="66"/>
	</g>
</g>
<g>
	<g>
		<path d="M348.215,141.889L314.747,84.08c-4.297-7.421-7.072-15.62-8.188-24.08H205.441c-1.116,8.46-3.892,16.658-8.189,24.08
			l-33.467,57.808C155.421,156.334,151,172.793,151,189.487V193h210v-3.513C361,172.793,356.579,156.334,348.215,141.889z"/>
	</g>
</g>
<g>
</g>
<g>
</g>
<g>
</g>
<g>
</g>
<g>
</g>
<g>
</g>
<g>
</g>
<g>
</g>
<g>
</g>
<g>
</g>
<g>
</g>
<g>
</g>
<g>
</g>
<g>
</g>
<g>
</g>
</svg>
